<?xml version="1.0" standalone="no"?>
<svg xmlns="http://www.w3.org/2000/svg" viewBox="0 0 152.64 36" width="152.64" height="36"><g fill="#ffffff" color="#ffffff" transform="translate(0 3.9999999999999982) scale(0.2800001)"><svg width="100.0" height="100.0" x="0.0" y="0.0" viewBox="0 0 100 100"><path fill="currentColor" d="M91.329,87.359V35.071h4.491V28.25h-7.259L50.016,4l-37.53,24.25H4.932v6.821h4.491v52.289H5.47v6.82h3.953  h81.907H96v-6.82H91.329z M50.018,10.062L80.013,28.25H20.917L50.018,10.062z M84.86,91.147H16.605v-3.215h8.443v-2.762h8.623  v-3.116h34.485v3.116h8.981v2.762h7.723V91.147z M15.887,85.086V42.27h7.186v42.816H15.887z M36.721,52.879v-3.031h28.021v3.031  H36.721z M64.563,55.152v23.872H51.63V55.152H64.563z M49.834,55.152v23.872H36.902V55.152H49.834z M85.219,85.464h-6.465V42.27  h6.465V85.464z M87.555,39.618H12.833v-4.547h74.722V39.618z"></path><g><path fill="currentColor" d="M49.592,25.344c-1.709-0.101-3-0.804-3.838-1.76l0.822-1.055c0.653,0.737,1.675,1.424,3.016,1.575v-4.088   c-1.709-0.47-3.486-1.039-3.486-3.101c0-1.742,1.458-2.966,3.486-3.083v-1.542h1.021v1.559c1.392,0.134,2.48,0.67,3.302,1.524   l-0.838,1.022c-0.671-0.72-1.524-1.139-2.464-1.273v3.636c1.727,0.486,3.553,1.139,3.553,3.317c0,1.525-0.972,3.067-3.553,3.268   v1.491h-1.021V25.344z M49.592,18.49v-3.418c-1.208,0.083-2.045,0.771-2.045,1.76C47.547,17.77,48.452,18.155,49.592,18.49z    M50.613,20.3v3.804c1.592-0.168,2.111-1.123,2.111-1.91C52.725,21.105,51.787,20.652,50.613,20.3z"></path></g></svg></g><path fill="#ffb400" fill-rule="nonzero" d="M6.98 7.37Q8.45 7.78 9.12 8.78Q9.79 9.79 9.79 11.06L9.79 11.06Q9.79 12.77 8.74 13.88Q7.68 15 5.14 15L5.14 15L0 15L0 0.29L4.44 0.29Q6.94 0.29 8.03 1.32Q9.12 2.35 9.12 4.06L9.12 4.06Q9.12 5.16 8.63 6.04Q8.14 6.91 6.98 7.37L6.98 7.37ZM2.45 1.20L2.45 7.01L4.27 7.01Q5.57 7.01 6.12 6.20Q6.67 5.40 6.67 4.08L6.67 4.08Q6.67 2.66 6.07 1.93Q5.47 1.20 4.27 1.20L4.27 1.20L2.45 1.20ZM4.90 14.09Q7.34 14.09 7.34 11.06L7.34 11.06Q7.34 9.74 6.72 8.83Q6.10 7.92 4.90 7.92L4.90 7.92L2.45 7.92L2.45 14.09L4.90 14.09ZM23.04 0.29L23.04 10.13Q23.04 11.98 22.26 13.14Q21.48 14.30 20.29 14.80Q19.10 15.29 17.78 15.29L17.78 15.29Q15.41 15.29 13.84 14.10Q12.26 12.91 12.26 10.13L12.26 10.13L12.26 0.29L14.71 0.29L14.71 10.13Q14.71 12.19 15.59 13.14Q16.46 14.09 17.95 14.09L17.95 14.09Q19.49 14.09 20.56 13.12Q21.62 12.14 21.62 10.13L21.62 10.13L21.62 0.29L23.04 0.29ZM31.54 0.29Q33.91 0.29 35.24 1.22Q36.58 2.16 37.08 3.77Q37.58 5.38 37.58 7.66L37.58 7.66Q37.58 9.94 37.08 11.53Q36.58 13.13 35.24 14.06Q33.91 15 31.54 15L31.54 15L26.66 15L26.66 0.29L31.54 0.29ZM31.25 14.09Q33.50 14.09 34.31 12.40Q35.11 10.70 35.11 7.66L35.11 7.66Q35.11 4.58 34.31 2.89Q33.50 1.20 31.25 1.20L31.25 1.20L29.11 1.20L29.11 14.09L31.25 14.09ZM51.31 7.51L51.31 15L50.09 15L49.58 13.20Q48.36 15.29 45.94 15.29L45.94 15.29Q43.73 15.29 42.49 14.39Q41.26 13.49 40.78 11.83Q40.30 10.18 40.30 7.66L40.30 7.66Q40.30 5.09 40.81 3.42Q41.33 1.75 42.61 0.88Q43.90 0 46.18 0L46.18 0Q48.60 0 49.66 1.00Q50.71 1.99 50.95 3.94L50.95 3.94L48.98 4.30Q48.70 1.01 46.18 1.01L46.18 1.01Q44.81 1.01 44.06 1.73Q43.32 2.45 43.03 3.86Q42.74 5.28 42.74 7.66L42.74 7.66Q42.74 9.96 43.01 11.38Q43.27 12.79 43.96 13.52Q44.64 14.26 45.94 14.26L45.94 14.26Q49.08 14.26 49.20 9.94L49.20 9.94L49.20 8.71L46.51 8.71L46.51 7.51L51.31 7.51ZM57.48 13.78L63.60 13.78L63.60 15L55.03 15L55.03 0.29L63.17 0.29L63.17 1.51L57.48 1.51L57.48 6.86L62.66 6.86L62.66 8.14L57.48 8.14L57.48 13.78ZM64.32 0.29L74.59 0.29L74.59 1.51L70.70 1.51L70.70 15L68.26 15L68.26 1.51L64.32 1.51L64.32 0.29ZM90.58 15L89.16 10.61L83.30 10.61L81.91 15L80.52 15L85.27 0.29L88.20 0.29L92.95 15L90.58 15ZM83.69 9.43L88.78 9.43L86.23 1.44L83.69 9.43ZM99.98 0.29Q102.53 0.29 103.58 1.60Q104.64 2.90 104.64 4.99L104.64 4.99Q104.64 7.08 103.58 8.38Q102.53 9.67 99.98 9.67L99.98 9.67L97.58 9.67L97.58 15L95.14 15L95.14 0.29L99.98 0.29ZM99.65 8.81Q100.97 8.81 101.58 7.80Q102.19 6.79 102.19 4.99L102.19 4.99Q102.19 3.22 101.58 2.21Q100.97 1.20 99.65 1.20L99.65 1.20L97.58 1.20L97.58 8.81L99.65 8.81ZM111.98 0.29Q114.53 0.29 115.58 1.60Q116.64 2.90 116.64 4.99L116.64 4.99Q116.64 7.08 115.58 8.38Q114.53 9.67 111.98 9.67L111.98 9.67L109.58 9.67L109.58 15L107.14 15L107.14 0.29L111.98 0.29ZM111.65 8.81Q112.97 8.81 113.58 7.80Q114.19 6.79 114.19 4.99L114.19 4.99Q114.19 3.22 113.58 2.21Q112.97 1.20 111.65 1.20L111.65 1.20L109.58 1.20L109.58 8.81L111.65 8.81Z" transform="translate(36, 10.5)"></path></svg>